<mxfile host="app.diagrams.net" modified="2023-05-08T03:52:28.577Z" agent="Mozilla/5.0 (Windows NT 10.0; Win64; x64) AppleWebKit/537.36 (KHTML, like Gecko) Chrome/112.0.0.0 Safari/537.36 Edg/112.0.1722.68" version="21.2.9" etag="IQ4No3kmEUBzj5l2hd6p" type="github">
  <diagram name="第 1 页" id="ej0Pu06WsTX-_M8jcsRu">
    <mxGraphModel>
      <root>
        <mxCell id="0" />
        <mxCell id="1" parent="0" />
      </root>
    </mxGraphModel>
  </diagram>
</mxfile>
